<svg xmlns="http://www.w3.org/2000/svg" xmlns:xlink="http://www.w3.org/1999/xlink" version="1.1" x="0px" y="0px" viewBox="0 0 100 125" enable-background="new 0 0 100 100" xml:space="preserve"><g><g><g><path d="M63.131,20.267c3.814,3.164,9.455,2.631,12.605-1.175c3.16-3.805,2.637-9.448-1.184-12.616     c-3.803-3.148-9.451-2.62-12.603,1.188C58.796,11.47,59.328,17.109,63.131,20.267z"/><path d="M16.536,80.204l16.851-12.286l10.107-18.221c0.149-0.354,0.331-0.749,0.574-1.145l2.542-4.108l-1.148-3.362     c-0.527-2.053,0.104-4.077,1.61-5.393l11.26-9.495c1.639-1.548,3.855-2.432,6.184-2.432c1.358,0,2.688,0.325,3.908,0.919     c-1.229-1.472-7.129-6.642-22.675,5.244C32.996,39.679,7.292,50.145,0,49.372c0,0,4.118,3.971,9.787,20.249     C11.57,74.742,13.992,78.061,16.536,80.204z"/><path d="M95.943,1.922L81.902,16.844L70.117,27.839c-0.482-0.548-1.02-1.053-1.668-1.454c-2.982-1.846-6.717-1.34-9.15,0.956     l-11.24,9.474c-1.075,0.939-1.531,2.402-1.179,3.786l4.538,13.276l5.141-1.303L54.795,40.99l6.475-5.426l-5.283,5.66l1.605,12.01     l-6.593,1.711L47.6,45.69l-2.257,3.649c-0.221,0.357-0.385,0.734-0.54,1.109l-0.01-0.006L34.537,68.934L13.553,84.232     l6.299,7.074l8.175-6l11.52-13.474l4.986-9.462L40.428,72.73L23.941,91.902l7.178,6.176l17.005-19.773     c0.343-0.4,0.618-0.854,0.813-1.343l6.814-17.196c0.974-0.6,1.833-1.416,2.476-2.455L69.98,38.305l17.004-15.831     c0.178-0.147,0.343-0.311,0.49-0.486L100,5.337L95.943,1.922z"/></g></g></g></svg>